<svg viewBox="-76 0 512 512.00102" xmlns="http://www.w3.org/2000/svg"><path d="m189.695312 492h-.269531c-5.523437 0-10 4.476562-10 10s4.476563 10 10 10h.269531c5.519532 0 10-4.476562 10-10s-4.480468-10-10-10zm0 0"/><path d="m328.449219 128.449219c-4.078125 0-7.972657.824219-11.554688 2.3125v-5.183594c0-18.273437-14.152343-33.140625-31.550781-33.140625-4.078125 0-7.972656.824219-11.554688 2.308594v-9.601563c0-18.277343-14.152343-33.144531-31.550781-33.144531-17.398437 0-31.550781 14.867188-31.550781 33.144531v2.636719c-3.582031-1.488281-7.476562-2.3125-11.550781-2.3125-17.398438 0-31.554688 14.867188-31.554688 33.144531v67.855469c-3.578125-1.484375-7.472656-2.308594-11.550781-2.308594-17.398438 0-31.554688 14.867188-31.554688 33.140625v2.636719c-3.578124-1.484375-7.472656-2.3125-11.550781-2.3125-17.394531 0-31.550781 14.871094-31.550781 33.144531v118.519531l-26.25-20.671874c-16.1875-12.75-31.734375-8.78125-40.128906-1.515626-10.148438 8.785157-12.644532 23.589844-5.941406 35.203126l45.476562 78.761718c5.875 10.171875 15.675781 17.355469 26.84375 20.074219v20.859375c0 5.523438 4.476562 10 10 10h58.082031c5.523438 0 10-4.476562 10-10s-4.476562-10-10-10h-48.082031v-19.660156c0-5.523438-4.476562-10-10-10-8.027344 0-15.507812-4.320313-19.523438-11.273438l-45.472656-78.761718c-2.277344-3.941407-.710937-7.988282 1.707032-10.082032 3.632812-3.144531 8.976562-2.375 14.664062 2.105469l42.4375 33.421875c3.007812 2.367188 7.105469 2.808594 10.554688 1.140625 3.445312-1.675781 5.632812-5.167969 5.632812-9v-139.121094c0-7.125 5.292969-13.144531 11.554688-13.144531 6.261718 0 11.550781 6.019531 11.550781 13.144531v103.796875c0 5.523438 4.476562 10 10 10 5.523437 0 10-4.476562 10-10v-137.265625c0-7.125 5.289062-13.140625 11.550781-13.140625s11.554688 6.015625 11.554688 13.140625v137.265625c0 5.523438 4.476562 10 10 10 5.519531 0 10-4.476562 10-10v-96.828125c0-7.125 5.289062-13.144531 11.550781-13.144531s11.550781 6.019531 11.550781 13.144531v96.828125c0 5.523438 4.476562 10 10 10s10-4.476562 10-10v-60.816406c0-7.125 5.292969-13.140625 11.554688-13.140625 6.261718 0 11.550781 6.015625 11.550781 13.140625l-.003907 121.503906c0 18.488282-10.871093 36.25-29.828124 48.734375-2.808594 1.851563-4.5 4.988281-4.5 8.351563v19.660156h-1.035157c-5.523437 0-10 4.476562-10 10s4.476563 10 10 10h11.035157c5.519531 0 10-4.476562 10-10v-24.441406c21.890624-16.101563 34.328124-38.550782 34.328124-62.304688v-35.410156h41.878907c5.519531 0 10-4.476562 10-10v-24.441406c21.890625-16.105469 34.328125-38.550782 34.328125-62.304688l.003906-121.507812c0-18.273438-14.15625-33.140625-31.550781-33.140625zm11.546875 154.648437c0 18.484375-10.871094 36.25-29.828125 48.734375-2.808594 1.847657-4.5 4.988281-4.5 8.351563v19.660156h-31.878907l.003907-66.09375c0-18.273438-14.15625-33.140625-31.554688-33.140625-4.074219 0-7.96875.824219-11.550781 2.308594v-5.179688c0-18.277343-14.152344-33.144531-31.550781-33.144531-4.078125 0-7.972657.824219-11.554688 2.3125v-108.292969c0-7.125 5.292969-13.144531 11.554688-13.144531s11.550781 6.019531 11.550781 13.144531v81.183594c0 5.523437 4.476562 10 10 10s10-4.476563 10-10v-114.652344c0-7.125 5.289062-13.144531 11.550781-13.144531 6.265625 0 11.554688 6.019531 11.554688 13.144531v114.652344c0 5.523437 4.476562 10 10 10 5.519531 0 10-4.476563 10-10v-74.21875c0-7.125 5.289062-13.140625 11.550781-13.140625s11.554688 6.015625 11.554688 13.140625l-.003907 74.21875c0 5.523437 4.476563 10 10 10 5.523438 0 10-4.476563 10-10l.003907-38.207031c0-7.125 5.289062-13.140625 11.550781-13.140625s11.550781 6.015625 11.550781 13.140625zm0 0"/><path d="m134.480469 20.140625c5.523437 0 10-4.476563 10-10v-.140625c0-5.523438-4.476563-10-10-10-5.523438 0-10 4.476562-10 10v.140625c0 5.523437 4.476562 10 10 10zm0 0"/><path d="m60.171875 204.160156c5.523437 0 10-4.476562 10-10 0-5.523437-4.476563-10-10-10h-50.171875c-5.523438 0-10 4.476563-10 10 0 5.523438 4.476562 10 10 10zm0 0"/><path d="m71.175781 127.199219c1.953125 1.953125 4.511719 2.925781 7.070313 2.925781s5.121094-.972656 7.070312-2.925781c3.90625-3.90625 3.90625-10.238281 0-14.144531l-35.472656-35.476563c-3.90625-3.902344-10.238281-3.902344-14.144531 0-3.90625 3.90625-3.90625 10.238281 0 14.144531zm0 0"/><path d="m134.480469 86.5c5.523437 0 10-4.476562 10-10v-38.371094c0-5.523437-4.476563-10-10-10-5.523438 0-10 4.476563-10 10v38.371094c0 5.523438 4.476562 10 10 10zm0 0"/></svg>